<?xml version="1.0" encoding="UTF-8" standalone="no"?>
<!DOCTYPE svg PUBLIC "-//W3C//DTD SVG 20010904//EN"
 "http://www.w3.org/TR/2001/REC-SVG-20010904/DTD/svg10.dtd">
<svg version="1.0" xmlns="http://www.w3.org/2000/svg"
 width="783.000000pt" height="470.000000pt" viewBox="0 0 783.000000 470.000000"
 preserveAspectRatio="xMidYMid meet">

<g transform="translate(0.000000,470.000000) scale(0.100000,-0.100000)"
fill="#000000" stroke="none">
<path d="M3685 3809 c-219 -37 -433 -137 -870 -409 -266 -165 -341 -207 -420
-236 -73 -28 -44 -31 40 -5 89 27 161 59 465 206 509 246 727 315 994 315 159
0 322 -43 416 -110 55 -39 31 -3 -47 71 -90 86 -170 131 -279 159 -82 21 -206
25 -299 9z"/>
<path d="M3970 3554 c-276 -30 -443 -89 -965 -339 -353 -169 -420 -197 -520
-221 l-60 -14 105 5 c141 5 258 29 695 140 590 150 798 187 1040 187 146 0
245 -16 332 -53 24 -10 43 -15 43 -11 0 4 -25 35 -56 70 -98 109 -225 187
-358 217 -67 15 -201 25 -256 19z"/>
<path d="M5170 3264 c-19 -2 -105 -9 -190 -15 -786 -55 -1621 -264 -2374 -593
-158 -69 -467 -218 -463 -223 2 -1 57 15 123 37 65 23 214 70 329 106 1236
385 2244 552 2981 494 211 -17 203 -3 72 -138 -124 -128 -239 -275 -335 -430
-58 -94 -171 -309 -206 -394 l-16 -38 32 0 c28 1 39 11 94 83 225 300 642 679
1126 1021 38 27 65 52 60 56 -20 18 -331 33 -748 35 -247 2 -466 1 -485 -1z"/>
<path d="M2165 2060 c-176 -28 -328 -89 -447 -179 -38 -29 -68 -53 -68 -55 0
-3 42 11 93 29 169 60 237 70 482 70 185 -1 241 -4 350 -24 190 -33 423 -95
840 -221 204 -62 447 -132 540 -155 579 -147 994 -136 1355 36 160 76 284 162
425 293 l60 56 -82 -54 c-156 -104 -328 -171 -529 -207 -95 -17 -159 -21 -319
-21 -342 0 -568 39 -1310 227 -701 177 -847 204 -1140 210 -104 2 -217 0 -250
-5z"/>
<path d="M2139 1760 c-209 -24 -389 -97 -505 -205 l-49 -45 59 25 c274 119
640 137 1066 54 161 -31 380 -90 785 -209 405 -120 631 -177 830 -212 176 -30
534 -33 665 -5 244 52 449 160 616 323 43 42 68 68 54 57 -108 -87 -283 -177
-420 -216 -164 -48 -283 -60 -515 -54 -345 9 -575 55 -1260 252 -622 179 -850
227 -1130 239 -66 2 -154 1 -196 -4z"/>
</g>
</svg>

